# xmcd
#
# Track frame offsets:
#	150
#	15850
#	42708
#
# Disc length: 955 seconds
#
# Revision: 0
# Processed by: cddbd v1.4PL0 Copyright (c) Steve Scherf et al.
# Submitted via: dBpowerAMP V4.0
#
DISCID=1a03b903
DTITLE=Mark McGuinn - Mrs. Steven Rudy
DYEAR=1900
DGENRE=Country
TTITLE0={Mark McGuinn} - {Mrs. Steven Rudy}
TTITLE1={Mark McGuinn} - {That's A Plan}
TTITLE2=DATA
EXTD=CD Single with a quicktime move
EXTT0=
EXTT1=
EXTT2=
PLAYORDER=
